<mxfile host="app.diagrams.net" modified="2021-06-23T13:34:53.719Z" agent="5.0 (Macintosh; Intel Mac OS X 10_15_6) AppleWebKit/537.36 (KHTML, like Gecko) Chrome/91.0.4472.77 Safari/537.36" etag="zqmcZKk-fW7wRVIYcZrO" version="14.2.7" type="github">
  <diagram id="au6omi89W53Fvpq4aFKy" name="Page-1">
    <mxGraphModel dx="892" dy="591" grid="0" gridSize="10" guides="1" tooltips="1" connect="1" arrows="1" fold="1" page="1" pageScale="1" pageWidth="827" pageHeight="1169" math="0" shadow="0">
      <root>
        <mxCell id="0" />
        <mxCell id="1" parent="0" />
        <mxCell id="OwF7ncWp0xC5rFj_o9zv-11" style="edgeStyle=orthogonalEdgeStyle;rounded=0;orthogonalLoop=1;jettySize=auto;html=1;entryX=0.5;entryY=1;entryDx=0;entryDy=0;" edge="1" parent="1" source="OwF7ncWp0xC5rFj_o9zv-1" target="OwF7ncWp0xC5rFj_o9zv-4">
          <mxGeometry relative="1" as="geometry" />
        </mxCell>
        <mxCell id="OwF7ncWp0xC5rFj_o9zv-12" value="扫码" style="edgeLabel;html=1;align=center;verticalAlign=middle;resizable=0;points=[];" vertex="1" connectable="0" parent="OwF7ncWp0xC5rFj_o9zv-11">
          <mxGeometry x="-0.0667" y="-2" relative="1" as="geometry">
            <mxPoint x="-20" y="-4" as="offset" />
          </mxGeometry>
        </mxCell>
        <mxCell id="OwF7ncWp0xC5rFj_o9zv-13" style="edgeStyle=orthogonalEdgeStyle;rounded=0;orthogonalLoop=1;jettySize=auto;html=1;entryX=0;entryY=0.5;entryDx=0;entryDy=0;" edge="1" parent="1" source="OwF7ncWp0xC5rFj_o9zv-1" target="OwF7ncWp0xC5rFj_o9zv-3">
          <mxGeometry relative="1" as="geometry" />
        </mxCell>
        <mxCell id="OwF7ncWp0xC5rFj_o9zv-1" value="" style="shape=image;verticalLabelPosition=bottom;labelBackgroundColor=#ffffff;verticalAlign=top;aspect=fixed;imageAspect=0;image=https://dss0.bdstatic.com/-0U0bnSm1A5BphGlnYG/tam-ogel/4c425dfb0b604ccc2ab180a0c4a595d9_121_121.jpg;" vertex="1" parent="1">
          <mxGeometry x="130" y="340" width="80" height="80" as="geometry" />
        </mxCell>
        <mxCell id="OwF7ncWp0xC5rFj_o9zv-15" style="edgeStyle=orthogonalEdgeStyle;rounded=0;orthogonalLoop=1;jettySize=auto;html=1;exitX=1;exitY=0.5;exitDx=0;exitDy=0;entryX=0;entryY=0.5;entryDx=0;entryDy=0;" edge="1" parent="1" source="OwF7ncWp0xC5rFj_o9zv-3" target="OwF7ncWp0xC5rFj_o9zv-5">
          <mxGeometry relative="1" as="geometry" />
        </mxCell>
        <mxCell id="OwF7ncWp0xC5rFj_o9zv-16" style="edgeStyle=orthogonalEdgeStyle;rounded=0;orthogonalLoop=1;jettySize=auto;html=1;entryX=0;entryY=0.5;entryDx=0;entryDy=0;" edge="1" parent="1" source="OwF7ncWp0xC5rFj_o9zv-3" target="OwF7ncWp0xC5rFj_o9zv-6">
          <mxGeometry relative="1" as="geometry" />
        </mxCell>
        <mxCell id="OwF7ncWp0xC5rFj_o9zv-17" style="edgeStyle=orthogonalEdgeStyle;rounded=0;orthogonalLoop=1;jettySize=auto;html=1;entryX=0;entryY=0.5;entryDx=0;entryDy=0;" edge="1" parent="1" source="OwF7ncWp0xC5rFj_o9zv-3" target="OwF7ncWp0xC5rFj_o9zv-7">
          <mxGeometry relative="1" as="geometry" />
        </mxCell>
        <mxCell id="OwF7ncWp0xC5rFj_o9zv-18" style="edgeStyle=orthogonalEdgeStyle;rounded=0;orthogonalLoop=1;jettySize=auto;html=1;entryX=0;entryY=0.5;entryDx=0;entryDy=0;" edge="1" parent="1" source="OwF7ncWp0xC5rFj_o9zv-3" target="OwF7ncWp0xC5rFj_o9zv-8">
          <mxGeometry relative="1" as="geometry" />
        </mxCell>
        <mxCell id="OwF7ncWp0xC5rFj_o9zv-19" style="edgeStyle=orthogonalEdgeStyle;rounded=0;orthogonalLoop=1;jettySize=auto;html=1;entryX=0;entryY=0.5;entryDx=0;entryDy=0;" edge="1" parent="1" source="OwF7ncWp0xC5rFj_o9zv-3" target="OwF7ncWp0xC5rFj_o9zv-9">
          <mxGeometry relative="1" as="geometry" />
        </mxCell>
        <mxCell id="OwF7ncWp0xC5rFj_o9zv-20" style="edgeStyle=orthogonalEdgeStyle;rounded=0;orthogonalLoop=1;jettySize=auto;html=1;entryX=0;entryY=0.5;entryDx=0;entryDy=0;" edge="1" parent="1" source="OwF7ncWp0xC5rFj_o9zv-3" target="OwF7ncWp0xC5rFj_o9zv-10">
          <mxGeometry relative="1" as="geometry" />
        </mxCell>
        <mxCell id="OwF7ncWp0xC5rFj_o9zv-30" style="edgeStyle=orthogonalEdgeStyle;rounded=0;orthogonalLoop=1;jettySize=auto;html=1;entryX=0;entryY=0.5;entryDx=0;entryDy=0;" edge="1" parent="1" source="OwF7ncWp0xC5rFj_o9zv-3" target="OwF7ncWp0xC5rFj_o9zv-28">
          <mxGeometry relative="1" as="geometry" />
        </mxCell>
        <mxCell id="OwF7ncWp0xC5rFj_o9zv-31" style="edgeStyle=orthogonalEdgeStyle;rounded=0;orthogonalLoop=1;jettySize=auto;html=1;entryX=0;entryY=0.5;entryDx=0;entryDy=0;" edge="1" parent="1" source="OwF7ncWp0xC5rFj_o9zv-3" target="OwF7ncWp0xC5rFj_o9zv-29">
          <mxGeometry relative="1" as="geometry" />
        </mxCell>
        <mxCell id="OwF7ncWp0xC5rFj_o9zv-3" value="&lt;font style=&quot;font-size: 20px&quot;&gt;权限系统&lt;/font&gt;" style="rounded=0;whiteSpace=wrap;html=1;" vertex="1" parent="1">
          <mxGeometry x="330" y="355" width="100" height="50" as="geometry" />
        </mxCell>
        <mxCell id="OwF7ncWp0xC5rFj_o9zv-4" value="&lt;font style=&quot;font-size: 20px&quot;&gt;ZljOA&lt;/font&gt;" style="rounded=0;whiteSpace=wrap;html=1;" vertex="1" parent="1">
          <mxGeometry x="120" y="170" width="100" height="50" as="geometry" />
        </mxCell>
        <mxCell id="OwF7ncWp0xC5rFj_o9zv-5" value="&lt;font style=&quot;font-size: 20px&quot;&gt;商品属性系统&lt;/font&gt;" style="rounded=0;whiteSpace=wrap;html=1;" vertex="1" parent="1">
          <mxGeometry x="540" y="85" width="130" height="40" as="geometry" />
        </mxCell>
        <mxCell id="OwF7ncWp0xC5rFj_o9zv-6" value="&lt;font style=&quot;font-size: 20px&quot;&gt;大基建系统&lt;/font&gt;" style="rounded=0;whiteSpace=wrap;html=1;" vertex="1" parent="1">
          <mxGeometry x="540" y="162" width="130" height="40" as="geometry" />
        </mxCell>
        <mxCell id="OwF7ncWp0xC5rFj_o9zv-7" value="&lt;font style=&quot;font-size: 20px&quot;&gt;售后系统&lt;/font&gt;" style="rounded=0;whiteSpace=wrap;html=1;" vertex="1" parent="1">
          <mxGeometry x="540" y="239" width="130" height="40" as="geometry" />
        </mxCell>
        <mxCell id="OwF7ncWp0xC5rFj_o9zv-8" value="&lt;font style=&quot;font-size: 20px&quot;&gt;客服系统&lt;/font&gt;" style="rounded=0;whiteSpace=wrap;html=1;" vertex="1" parent="1">
          <mxGeometry x="540" y="316" width="130" height="40" as="geometry" />
        </mxCell>
        <mxCell id="OwF7ncWp0xC5rFj_o9zv-9" value="&lt;font style=&quot;font-size: 20px&quot;&gt;财务系统&lt;/font&gt;" style="rounded=0;whiteSpace=wrap;html=1;" vertex="1" parent="1">
          <mxGeometry x="540" y="394" width="130" height="40" as="geometry" />
        </mxCell>
        <mxCell id="OwF7ncWp0xC5rFj_o9zv-10" value="&lt;font style=&quot;font-size: 20px&quot;&gt;采购系统&lt;/font&gt;" style="rounded=0;whiteSpace=wrap;html=1;" vertex="1" parent="1">
          <mxGeometry x="540" y="471" width="130" height="40" as="geometry" />
        </mxCell>
        <mxCell id="OwF7ncWp0xC5rFj_o9zv-14" value="扫码" style="edgeLabel;html=1;align=center;verticalAlign=middle;resizable=0;points=[];" vertex="1" connectable="0" parent="1">
          <mxGeometry x="162" y="290" as="geometry">
            <mxPoint x="111" y="78" as="offset" />
          </mxGeometry>
        </mxCell>
        <mxCell id="OwF7ncWp0xC5rFj_o9zv-21" value="" style="endArrow=classic;html=1;entryX=0.5;entryY=1;entryDx=0;entryDy=0;" edge="1" parent="1" target="OwF7ncWp0xC5rFj_o9zv-4">
          <mxGeometry width="50" height="50" relative="1" as="geometry">
            <mxPoint x="210" y="290" as="sourcePoint" />
            <mxPoint x="110" y="260" as="targetPoint" />
          </mxGeometry>
        </mxCell>
        <mxCell id="OwF7ncWp0xC5rFj_o9zv-22" value="手机号&amp;amp;密码" style="edgeLabel;html=1;align=center;verticalAlign=middle;resizable=0;points=[];" vertex="1" connectable="0" parent="OwF7ncWp0xC5rFj_o9zv-21">
          <mxGeometry x="0.0646" y="-1" relative="1" as="geometry">
            <mxPoint x="40.47" as="offset" />
          </mxGeometry>
        </mxCell>
        <mxCell id="OwF7ncWp0xC5rFj_o9zv-23" value="" style="endArrow=classic;html=1;entryX=0;entryY=0.5;entryDx=0;entryDy=0;" edge="1" parent="1" target="OwF7ncWp0xC5rFj_o9zv-3">
          <mxGeometry width="50" height="50" relative="1" as="geometry">
            <mxPoint x="240" y="430" as="sourcePoint" />
            <mxPoint x="180" y="230" as="targetPoint" />
          </mxGeometry>
        </mxCell>
        <mxCell id="OwF7ncWp0xC5rFj_o9zv-24" value="手机号&amp;amp;密码&amp;amp;验证码" style="edgeLabel;html=1;align=center;verticalAlign=middle;resizable=0;points=[];" vertex="1" connectable="0" parent="OwF7ncWp0xC5rFj_o9zv-23">
          <mxGeometry x="0.0646" y="-1" relative="1" as="geometry">
            <mxPoint x="15.439999999999998" y="25.84" as="offset" />
          </mxGeometry>
        </mxCell>
        <mxCell id="OwF7ncWp0xC5rFj_o9zv-26" style="edgeStyle=orthogonalEdgeStyle;rounded=0;orthogonalLoop=1;jettySize=auto;html=1;exitX=0.5;exitY=0;exitDx=0;exitDy=0;entryX=0.5;entryY=1;entryDx=0;entryDy=0;" edge="1" parent="1" source="OwF7ncWp0xC5rFj_o9zv-25" target="OwF7ncWp0xC5rFj_o9zv-1">
          <mxGeometry relative="1" as="geometry" />
        </mxCell>
        <mxCell id="OwF7ncWp0xC5rFj_o9zv-27" value="告警" style="edgeLabel;html=1;align=center;verticalAlign=middle;resizable=0;points=[];" vertex="1" connectable="0" parent="OwF7ncWp0xC5rFj_o9zv-26">
          <mxGeometry x="0.113" relative="1" as="geometry">
            <mxPoint x="-19" as="offset" />
          </mxGeometry>
        </mxCell>
        <mxCell id="OwF7ncWp0xC5rFj_o9zv-25" value="&lt;font style=&quot;font-size: 20px&quot;&gt;邮寄回收&lt;/font&gt;" style="rounded=0;whiteSpace=wrap;html=1;" vertex="1" parent="1">
          <mxGeometry x="120" y="535" width="100" height="50" as="geometry" />
        </mxCell>
        <mxCell id="OwF7ncWp0xC5rFj_o9zv-28" value="&lt;span style=&quot;font-size: 20px&quot;&gt;仓储系统&lt;/span&gt;" style="rounded=0;whiteSpace=wrap;html=1;" vertex="1" parent="1">
          <mxGeometry x="540" y="548" width="130" height="40" as="geometry" />
        </mxCell>
        <mxCell id="OwF7ncWp0xC5rFj_o9zv-29" value="&lt;span style=&quot;font-size: 20px&quot;&gt;质检大脑&lt;/span&gt;" style="rounded=0;whiteSpace=wrap;html=1;" vertex="1" parent="1">
          <mxGeometry x="540" y="625" width="130" height="40" as="geometry" />
        </mxCell>
      </root>
    </mxGraphModel>
  </diagram>
</mxfile>
